<svg width="60" height="60" fill="currentColor" viewBox="0 0 24 24" xmlns="http://www.w3.org/2000/svg">
  <path fill-rule="evenodd" d="M.05 2.4A2.35 2.35 0 0 1 2.4.05h19.2a2.35 2.35 0 0 1 2.35 2.35v19.2a2.35 2.35 0 0 1-2.35 2.35H2.4A2.35 2.35 0 0 1 .05 21.6V2.4Zm2.35-.85a.85.85 0 0 0-.85.85v19.2c0 .47.38.85.85.85h19.2c.47 0 .85-.38.85-.85V2.4a.85.85 0 0 0-.85-.85H2.4ZM8 7.95H6.4v-1.5H8v1.5ZM6.45 17.6v-8h1.5v8h-1.5Zm3.2-8h1.5v.902a3.95 3.95 0 0 1 6.4 3.098v4h-1.5v-4a2.45 2.45 0 0 0-4.9 0v4h-1.5v-8Z" clip-rule="evenodd"></path>
</svg>